# xmcd
#
# Track frame offsets:
#	150
#	19337
#	40527
#	65385
#	83532
#	113114
#	130881
#	153873
#	179319
#	214423
#	247522
#
# Disc length: 4224 seconds
#
# Revision: 0
# Processed by: cddbd v1.5.2PL0 Copyright (c) Steve Scherf et al.
# Submitted via: audiograbber 1.83.01
#
DISCID=81107e0b
DTITLE=Driftin - Backpfeife
DYEAR=2008
DGENRE=Rock
TTITLE0=Lummerland
TTITLE1=Orange Groove
TTITLE2=Shamal
TTITLE3=Two Nickels
TTITLE4=I´m Crying
TTITLE5=Broken Leg Blues
TTITLE6=No way out blues
TTITLE7=Face to Face
TTITLE8=One of these PF Jams
TTITLE9=Is this Rock ´n´Roll
TTITLE10=A slap
EXTD=
EXTT0=
EXTT1=
EXTT2=
EXTT3=
EXTT4=
EXTT5=
EXTT6=
EXTT7=
EXTT8=
EXTT9=
EXTT10=
PLAYORDER=
